<svg width="1920" height="1080" fill="none" xmlns="http://www.w3.org/2000/svg"><mask id="Mask Group__a" style="mask-type:alpha" maskUnits="userSpaceOnUse" x="0" y="0" width="1920" height="1080"><path transform="matrix(1 0 0 -1 0 1080)" fill="#fff" d="M0 0h1920v1080H0z"/></mask><g mask="url(#Mask Group__a)" fill="#09F"><path d="M-212.559 438.81c-338.147 73.625-383.812-1.611 149.06 264.671-7.354-48.913-68.825-149.39-149.06-264.671C.422 392.438 329.434 287.011 703 0c50.754-38.994 93.872-73.2 130.281-103.057C832.966-47.235 898.628 0 1111.5 0c-586 1192 601.6 1151.8 520 1399-81.6 247.2 495.17-8.69 754-97.52C2295.67 703.648 2116-498.318 2116-523.518c0-31.5-1165-618.002-1377.5-550.002S-248-597.518-333-560.518c-85 37-306 379.5-306 416.5 0 25.171 255.703 337.517 426.441 582.828Z"/><path d="M870 1086C998.065 656.635 238 642.167-19 694c-62.5 7.834-191.1 23.1-205.5 21.5-18-2-558 93.5-568 102-8 6.8 85 324.17 132.5 482 549.334 111.33 1384 276 1530-213.5Z"/></g></svg>