<svg id="Layer_1" data-name="Layer 1" xmlns="http://www.w3.org/2000/svg" xmlns:xlink="http://www.w3.org/1999/xlink" viewBox="0 0 1920 1080"><defs><style>.cls-1{fill:none;}.cls-2{clip-path:url(#clip-path);}.cls-3{fill:#5c96f8;}</style><clipPath id="clip-path"><rect class="cls-1" width="1920" height="1080"/></clipPath></defs><g class="cls-2"><path class="cls-3" d="M1703-152c-101.58,979.74-340.31,1304.07-558,1403-45.23,20.55-113,42-111,69,7.11,94.34,879.45,385.47,1334-73,379.24-382.52,342-1160.12-46-1391C2099.39-276.46,1819.68-194.25,1703-152Z"/><path class="cls-3" d="M1397-193c231,504.48-200.33,1188.16-676,1341-200.12,64.3-411.93,35.87-627,7-270.86-36.36-420.15-56.4-524-164C-655.76,757.08-534,246.82-338-64-142.59-373.81,294.48-751.51,797-644,834.85-635.9,1236.51-543.52,1397-193Z"/></g></svg>