<svg width="1920" height="1080" fill="none" xmlns="http://www.w3.org/2000/svg"><mask id="Mask Group__a" style="mask-type:alpha" maskUnits="userSpaceOnUse" x="0" y="0" width="1920" height="1080"><path fill="#fff" d="M0 0h1920v1080H0z"/></mask><g mask="url(#Mask Group__a)"><path d="M-64 1300.5c1056.8 0 1426.67-986.333 1479.5-1479.5-69.83-77.5-214.1-233.7-232.5-238.5-23-6-104.5-22.5-283.5-68S738-528 177-584.5-225.5-576-299.5-556s-5.5 31-14 303-116 621-139 774-187 666-187 703 221 379.5 306 416.5 859 445 1071.5 513 1377.5-518.5 1377.5-550c0-25.2 179.67-1227.167 269.5-1825-258.83-88.833-755.6-204.7-674 42.5 81.6 247.2-589 1269-841.5 1608.5-780.5 0-1990.3-129-933.5-129Z" fill="#09F"/></g></svg>