<svg width="1920" height="1080" fill="none" xmlns="http://www.w3.org/2000/svg"><mask id="Mask Group__a" style="mask-type:alpha" maskUnits="userSpaceOnUse" x="0" y="0" width="1920" height="1080"><path fill="#fff" d="M0 0h1920v1080H0z"/></mask><g mask="url(#Mask Group__a)" fill="#09F"><path d="M1674 689.026c-506-168.4-146-345-513-757 88-84 599.1-266.4 613.5-270 14.4-3.6 353 369.5 520.5 556.5-51.17 214.667-115 638.9-621 470.5Z"/><ellipse cx="990" cy="760.5" rx="302" ry="282.5"/><path d="M637 522c-254.5 605-1017.5 64.5-1035.5 48.5-41.334-177.333-125.8-534.7-133-545.5-7.2-10.8 704.333-308.5 1061-456l431 272.5C937.5-133.333 840.599 38 637 522Z"/></g></svg>