<svg width="1920" height="1080" fill="none" xmlns="http://www.w3.org/2000/svg"><mask id="Mask Group__a" style="mask-type:alpha" maskUnits="userSpaceOnUse" x="0" y="0" width="1920" height="1080"><path fill="#fff" d="M0 0h1920v1080H0z"/></mask><g mask="url(#Mask Group__a)" fill="#09F"><path d="M1297 1196c86.4-536 566-844 795-931l1048 198.5c223.17 160.333 681.2 498 728 566 46.8 68-19.5 768.67-58.5 1110.5L1297 2297.5l-1654.5-1052c-13.833-99.33 79.2-418.7 562-901.5s820.17-201.167 928.5 0c44.17 131.167 9.3 411.5-483.5 483.5C33.5 917.5 1189 1866 1297 1196Z"/><path d="M1208.58 255.284c-183.6-106.401-93.5-318.334-25.5-411l-25.5-187c232.34-24.5 703.2-72.4 728-68 24.8 4.4 207 134.166 295 198.5-62.33 119-208.6 379.099-295 467.5-108 110.5-447.5 133-677 0Z"/></g></svg>