<svg width="76" height="35" fill="none" xmlns="http://www.w3.org/2000/svg"><path d="M42 15.203c.32-.836.5-1.75.5-2.703C42.5 8.36 39.14 5 35 5c-1.54 0-2.977.469-4.164 1.266C28.672 2.516 24.633 0 20 0 13.094 0 7.5 5.594 7.5 12.5c0 .21.008.422.016.633C3.14 14.672 0 18.843 0 23.75 0 29.96 5.04 35 11.25 35H40c5.523 0 10-4.477 10-10 0-4.836-3.438-8.875-8-9.797Z" fill="#09F"/><path d="M14.183 21.934h1.898a3.442 3.442 0 0 1-.515 1.657c-.3.482-.721.859-1.263 1.13-.537.27-1.185.406-1.942.406-.593 0-1.124-.102-1.593-.305a3.391 3.391 0 0 1-1.206-.888 3.959 3.959 0 0 1-.756-1.397 6.041 6.041 0 0 1-.26-1.834v-.642c0-.677.089-1.288.267-1.834.181-.55.44-1.018.774-1.403a3.452 3.452 0 0 1 1.212-.889c.47-.207.995-.31 1.575-.31.77 0 1.42.14 1.948.419.534.279.946.664 1.238 1.155.296.49.474 1.05.533 1.675H14.19c-.021-.372-.095-.687-.222-.945a1.26 1.26 0 0 0-.578-.59c-.254-.136-.592-.204-1.015-.204-.318 0-.595.06-.832.178a1.544 1.544 0 0 0-.597.54c-.16.24-.281.545-.361.914a6.322 6.322 0 0 0-.115 1.282v.654c0 .478.036.899.108 1.263a2.9 2.9 0 0 0 .33.914c.153.245.347.431.584.559.241.122.531.184.87.184.398 0 .726-.064.984-.19.258-.128.455-.316.59-.566.14-.25.222-.56.248-.933Zm4.963-6.684V25h-1.834v-9.75h1.834Zm1.22 6.386v-.134c0-.503.071-.966.215-1.39.144-.427.353-.797.628-1.11a2.815 2.815 0 0 1 1.016-.73c.402-.178.863-.267 1.384-.267.52 0 .984.089 1.39.267a2.79 2.79 0 0 1 1.022.73c.28.313.49.683.635 1.11.144.424.216.887.216 1.39v.134c0 .5-.072.963-.216 1.39a3.24 3.24 0 0 1-.635 1.11 2.816 2.816 0 0 1-1.016.73c-.402.174-.863.261-1.383.261a3.51 3.51 0 0 1-1.39-.26 2.876 2.876 0 0 1-1.023-.73 3.294 3.294 0 0 1-.628-1.111 4.331 4.331 0 0 1-.216-1.39Zm1.827-.134v.134c0 .288.026.556.076.806.051.25.132.47.242.66.114.186.262.332.444.438.182.106.404.159.667.159.253 0 .471-.053.653-.159a1.21 1.21 0 0 0 .438-.438c.11-.19.19-.41.242-.66.055-.25.082-.518.082-.806v-.134a3.6 3.6 0 0 0-.082-.787 2.082 2.082 0 0 0-.248-.66 1.23 1.23 0 0 0-.438-.457 1.253 1.253 0 0 0-.66-.165c-.258 0-.478.055-.66.165a1.3 1.3 0 0 0-.438.457c-.11.19-.19.41-.241.66a3.87 3.87 0 0 0-.077.787Zm9.865 1.854v-5.224h1.828V25h-1.72l-.108-1.644Zm.203-1.41.54-.012c0 .457-.054.882-.16 1.276-.105.39-.264.728-.475 1.016a2.225 2.225 0 0 1-.8.666c-.322.157-.7.235-1.136.235-.335 0-.644-.047-.927-.14a1.886 1.886 0 0 1-.724-.45 2.182 2.182 0 0 1-.47-.794c-.11-.326-.165-.717-.165-1.174v-4.437h1.829v4.45c0 .203.023.374.07.514.05.14.12.254.209.343a.766.766 0 0 0 .31.19c.123.038.259.057.407.057.377 0 .673-.076.889-.229.22-.152.374-.36.463-.622.093-.266.14-.562.14-.888Zm7.077 1.556V15.25h1.841V25h-1.657l-.184-1.498Zm-4.341-1.854v-.133c0-.525.059-1 .177-1.428a3.33 3.33 0 0 1 .52-1.11c.23-.31.51-.549.845-.718.334-.17.715-.254 1.143-.254.402 0 .753.085 1.053.254.305.17.563.41.775.723.216.31.39.675.52 1.099.131.419.227.878.286 1.377v.292c-.06.478-.155.922-.286 1.333-.13.41-.304.77-.52 1.08-.212.304-.47.54-.775.71a2.16 2.16 0 0 1-1.066.254c-.427 0-.808-.087-1.143-.26a2.424 2.424 0 0 1-.838-.73 3.498 3.498 0 0 1-.514-1.105 5.118 5.118 0 0 1-.177-1.384Zm1.828-.133v.133c0 .284.02.549.063.794a2.3 2.3 0 0 0 .222.654c.106.186.242.332.407.438.169.101.374.152.615.152.314 0 .572-.07.775-.21.203-.143.357-.34.463-.59.11-.25.174-.537.19-.863v-.832a2.99 2.99 0 0 0-.114-.717 1.56 1.56 0 0 0-.266-.552 1.176 1.176 0 0 0-.432-.356 1.334 1.334 0 0 0-.603-.127c-.237 0-.44.055-.61.166a1.21 1.21 0 0 0-.412.438 2.329 2.329 0 0 0-.228.66c-.047.25-.07.52-.07.812Z" fill="#fff"/><path d="m47.053 23.534 1.841-7.776h1.028l.235 1.295L48.196 25H47.09l-.038-1.466Zm-.946-7.776 1.524 7.776L47.504 25h-1.231l-2.05-9.242h1.884Zm5.669 7.744 1.504-7.744h1.886L53.122 25H51.89l-.114-1.498ZM50.5 15.758l1.853 7.807-.05 1.435h-1.105l-1.974-7.954.254-1.288H50.5Zm9.077 7.693v-3.06c0-.22-.036-.408-.108-.564a.803.803 0 0 0-.336-.375c-.148-.089-.34-.133-.578-.133-.203 0-.379.036-.527.108a.763.763 0 0 0-.343.298.825.825 0 0 0-.12.45h-1.828c0-.291.067-.568.203-.83.135-.263.332-.494.59-.693.258-.203.565-.361.92-.476.36-.114.762-.171 1.207-.171.533 0 1.007.089 1.422.267.414.177.74.444.977.8.241.355.362.8.362 1.332v2.94c0 .376.023.685.07.926.046.237.114.444.203.622V25h-1.847a2.641 2.641 0 0 1-.203-.698 5.758 5.758 0 0 1-.064-.85Zm.241-2.634.013 1.035H58.81c-.241 0-.45.027-.628.082a1.17 1.17 0 0 0-.438.235.908.908 0 0 0-.254.343c-.051.13-.076.275-.076.431a.768.768 0 0 0 .418.718c.136.067.295.101.477.101.275 0 .514-.055.717-.165.203-.11.36-.245.47-.406a.844.844 0 0 0 .177-.457l.483.774a3.105 3.105 0 0 1-.28.54 2.259 2.259 0 0 1-1.08.927 2.348 2.348 0 0 1-.887.152 2.67 2.67 0 0 1-1.187-.26 2.165 2.165 0 0 1-.838-.73 1.916 1.916 0 0 1-.305-1.067c0-.36.068-.679.203-.958a1.88 1.88 0 0 1 .597-.705c.267-.194.599-.34.996-.438a5.66 5.66 0 0 1 1.384-.152h1.06Zm5.243 2.85 1.524-5.535h1.91L66.18 25h-1.156l.038-1.333Zm-1.047-5.535 1.53 5.541.032 1.327h-1.162l-2.317-6.868h1.917Zm8.373 6.995a3.835 3.835 0 0 1-1.435-.254 3.152 3.152 0 0 1-1.079-.717 3.19 3.19 0 0 1-.673-1.06 3.569 3.569 0 0 1-.235-1.295v-.254c0-.52.074-.997.222-1.428a3.38 3.38 0 0 1 .635-1.124c.28-.317.618-.56 1.016-.73.398-.173.846-.26 1.346-.26.486 0 .918.08 1.294.241.377.16.692.39.946.686.258.296.453.651.584 1.066.132.41.197.868.197 1.371v.762h-5.459v-1.219h3.663v-.14c0-.253-.047-.48-.14-.679a1.077 1.077 0 0 0-.406-.482c-.182-.119-.415-.178-.698-.178-.242 0-.449.053-.623.159a1.227 1.227 0 0 0-.425.444c-.106.19-.186.415-.241.673-.05.254-.076.533-.076.838v.254c0 .275.038.529.114.762.08.232.193.433.337.603.148.169.325.3.533.393.211.093.45.14.717.14.33 0 .637-.064.92-.19.288-.132.536-.329.743-.591l.889.965a2.7 2.7 0 0 1-.59.597 3.2 3.2 0 0 1-.89.47 3.664 3.664 0 0 1-1.186.177Z" fill="#000"/></svg>