<svg width="78" height="35" fill="none" xmlns="http://www.w3.org/2000/svg"><path d="M42.84 15.203c.327-.836.51-1.75.51-2.703 0-4.14-3.427-7.5-7.65-7.5-1.57 0-3.036.469-4.247 1.266C29.245 2.516 25.125 0 20.4 0 13.356 0 7.65 5.594 7.65 12.5c0 .21.008.422.016.633C3.203 14.672 0 18.843 0 23.75 0 29.96 5.14 35 11.475 35H40.8C46.434 35 51 30.523 51 25c0-4.836-3.506-8.875-8.16-9.797Z" fill="#09F"/><path d="M10.388 23.934h1.898a3.44 3.44 0 0 1-.514 1.657 3.073 3.073 0 0 1-1.264 1.13c-.537.27-1.185.406-1.942.406-.593 0-1.124-.102-1.593-.305a3.39 3.39 0 0 1-1.206-.888 3.959 3.959 0 0 1-.756-1.397 6.041 6.041 0 0 1-.26-1.834v-.642c0-.677.089-1.288.267-1.834.182-.55.44-1.018.774-1.403a3.452 3.452 0 0 1 1.212-.889c.47-.207.995-.31 1.575-.31.77 0 1.42.14 1.948.419.534.279.946.664 1.238 1.155.296.49.474 1.05.533 1.675h-1.904c-.021-.372-.095-.687-.222-.945a1.26 1.26 0 0 0-.578-.59c-.254-.136-.592-.204-1.015-.204-.318 0-.595.06-.832.178a1.544 1.544 0 0 0-.597.54c-.16.24-.281.545-.361.914a6.324 6.324 0 0 0-.115 1.282v.654c0 .478.036.899.108 1.263.072.36.182.664.33.914.153.245.347.431.584.559.242.122.531.184.87.184.398 0 .726-.064.984-.19.258-.128.455-.316.59-.566.14-.25.222-.56.248-.933Zm2.742-.298v-.134c0-.503.072-.966.216-1.39.144-.427.353-.797.628-1.11a2.816 2.816 0 0 1 1.016-.73c.402-.178.863-.267 1.383-.267.521 0 .984.089 1.39.267.407.173.748.416 1.023.73.279.313.49.683.634 1.11.144.424.216.887.216 1.39v.134c0 .5-.072.963-.216 1.39a3.24 3.24 0 0 1-.634 1.11 2.815 2.815 0 0 1-1.016.73c-.402.174-.863.261-1.384.261a3.51 3.51 0 0 1-1.39-.26 2.877 2.877 0 0 1-1.022-.73 3.297 3.297 0 0 1-.628-1.111 4.331 4.331 0 0 1-.216-1.39Zm1.828-.134v.134c0 .288.025.556.076.806s.131.47.241.66c.115.186.263.332.445.438.182.106.404.159.666.159.254 0 .472-.053.654-.159a1.21 1.21 0 0 0 .438-.438c.11-.19.19-.41.241-.66.055-.25.083-.518.083-.806v-.134c0-.279-.028-.541-.083-.787-.05-.25-.133-.47-.247-.66a1.23 1.23 0 0 0-.438-.457 1.253 1.253 0 0 0-.66-.165c-.259 0-.479.055-.66.165-.178.11-.324.262-.439.457-.11.19-.19.41-.24.66a3.88 3.88 0 0 0-.077.787Zm9.864 1.854v-5.224h1.828V27h-1.72l-.108-1.644Zm.203-1.41.54-.012c0 .457-.053.882-.159 1.276a3.04 3.04 0 0 1-.476 1.016 2.225 2.225 0 0 1-.8.666c-.321.157-.7.235-1.136.235-.334 0-.643-.047-.927-.14a1.886 1.886 0 0 1-.723-.45 2.183 2.183 0 0 1-.47-.794c-.11-.326-.165-.717-.165-1.174v-4.437h1.828v4.45c0 .203.023.374.07.514.05.14.12.254.21.343a.767.767 0 0 0 .31.19c.123.038.259.057.407.057.376 0 .672-.076.888-.229.22-.152.375-.36.464-.622.093-.266.14-.562.14-.888Zm4.85-2.316V27h-1.828v-6.868h1.72l.108 1.498Zm2.07-1.543-.032 1.695a4.441 4.441 0 0 0-.324-.032 3.293 3.293 0 0 0-.337-.019 2.01 2.01 0 0 0-.672.102 1.2 1.2 0 0 0-.47.286 1.245 1.245 0 0 0-.28.463c-.059.182-.092.39-.101.622l-.368-.114c0-.445.044-.853.133-1.225a3.39 3.39 0 0 1 .387-.984c.174-.28.385-.495.635-.648.25-.152.535-.228.857-.228.102 0 .205.008.311.025.106.013.193.032.26.057Zm4.576 5.015a.594.594 0 0 0-.114-.355c-.076-.106-.218-.203-.426-.292-.203-.093-.497-.178-.882-.254a6.882 6.882 0 0 1-.971-.286 3.368 3.368 0 0 1-.775-.425 1.85 1.85 0 0 1-.507-.584 1.625 1.625 0 0 1-.184-.781c0-.288.061-.559.184-.813.127-.253.307-.478.54-.672.236-.2.524-.354.862-.464a3.64 3.64 0 0 1 1.156-.171c.596 0 1.108.095 1.536.286.432.19.762.452.99.787.233.33.35.706.35 1.13h-1.83a.978.978 0 0 0-.114-.477.754.754 0 0 0-.343-.336c-.152-.085-.351-.127-.596-.127-.204 0-.38.036-.527.108a.808.808 0 0 0-.343.28.672.672 0 0 0-.114.38.63.63 0 0 0 .063.286c.047.08.12.154.222.222.102.068.233.131.394.19.165.055.368.106.61.153.494.101.936.235 1.326.4.39.16.698.38.927.66.228.275.342.637.342 1.085 0 .305-.067.584-.203.838-.135.254-.33.476-.584.667a2.96 2.96 0 0 1-.914.438 4.271 4.271 0 0 1-1.187.152c-.639 0-1.18-.114-1.625-.343-.44-.228-.774-.518-1.003-.87a2.023 2.023 0 0 1-.336-1.091h1.733c.008.25.072.45.19.603.123.152.277.262.464.33.19.068.395.101.615.101.237 0 .434-.031.59-.095a.84.84 0 0 0 .356-.266.643.643 0 0 0 .127-.394Zm6.126 2.025a3.835 3.835 0 0 1-1.435-.254 3.15 3.15 0 0 1-1.08-.717 3.186 3.186 0 0 1-.672-1.06 3.569 3.569 0 0 1-.235-1.295v-.254c0-.52.074-.997.222-1.428a3.36 3.36 0 0 1 .635-1.124c.28-.317.618-.56 1.016-.73.397-.173.846-.26 1.345-.26.487 0 .919.08 1.295.241.377.16.692.39.946.686.258.296.453.651.584 1.066.131.41.197.868.197 1.371v.762h-5.46v-1.219h3.663v-.14c0-.253-.046-.48-.14-.679a1.078 1.078 0 0 0-.405-.482c-.182-.119-.415-.178-.699-.178-.24 0-.448.053-.622.159a1.227 1.227 0 0 0-.425.444c-.106.19-.186.415-.241.673a4.263 4.263 0 0 0-.076.838v.254c0 .275.038.529.114.762.08.232.192.433.336.603.148.169.326.3.534.393.211.093.45.14.717.14.33 0 .637-.064.92-.19.288-.132.536-.329.743-.591l.889.965a2.74 2.74 0 0 1-.59.597 3.2 3.2 0 0 1-.89.47 3.665 3.665 0 0 1-1.186.177Z" fill="#fff"/><path d="m49.286 25.534 1.84-7.776h1.029l.235 1.295L50.428 27h-1.104l-.038-1.466Zm-.946-7.776 1.523 7.776L49.736 27h-1.231l-2.05-9.242h1.885Zm5.668 7.744 1.505-7.744h1.885L55.354 27h-1.231l-.115-1.498Zm-1.276-7.744 1.854 7.807-.05 1.435H53.43l-1.974-7.954.253-1.288h1.022Zm9.078 7.693v-3.06c0-.22-.036-.408-.108-.564a.804.804 0 0 0-.337-.375c-.148-.089-.34-.133-.577-.133-.203 0-.38.036-.527.108a.762.762 0 0 0-.343.298.825.825 0 0 0-.12.45h-1.829c0-.291.068-.568.203-.83a2.09 2.09 0 0 1 .59-.693 2.95 2.95 0 0 1 .921-.476c.36-.114.762-.171 1.206-.171.533 0 1.007.089 1.422.267.415.177.74.444.978.8.24.355.361.8.361 1.332v2.94c0 .376.024.685.07.926.047.237.114.444.203.622V27h-1.847a2.641 2.641 0 0 1-.203-.698 5.758 5.758 0 0 1-.063-.85Zm.24-2.634.014 1.035H61.04c-.24 0-.45.027-.628.082a1.17 1.17 0 0 0-.438.235.908.908 0 0 0-.254.343c-.05.13-.076.275-.076.431 0 .157.036.299.108.426a.77.77 0 0 0 .311.292c.135.067.294.101.476.101.275 0 .514-.055.717-.165.203-.11.36-.245.47-.406a.844.844 0 0 0 .178-.457l.482.774c-.068.174-.16.354-.28.54-.113.186-.26.362-.437.527-.178.16-.392.294-.641.4-.25.101-.546.152-.889.152a2.67 2.67 0 0 1-1.187-.26 2.165 2.165 0 0 1-.838-.73 1.916 1.916 0 0 1-.305-1.067c0-.36.068-.679.204-.958a1.87 1.87 0 0 1 .596-.705c.267-.194.6-.34.997-.438a5.655 5.655 0 0 1 1.384-.152h1.06Zm5.244 2.85 1.523-5.535h1.911L68.411 27h-1.155l.038-1.333Zm-1.047-5.535 1.53 5.541.031 1.327h-1.162l-2.316-6.868h1.917Zm8.372 6.995a3.834 3.834 0 0 1-1.434-.254 3.15 3.15 0 0 1-1.08-.717 3.188 3.188 0 0 1-.672-1.06 3.568 3.568 0 0 1-.235-1.295v-.254c0-.52.074-.997.222-1.428.148-.432.36-.806.635-1.124.279-.317.617-.56 1.015-.73.398-.173.847-.26 1.346-.26.487 0 .918.08 1.295.241.377.16.692.39.946.686.258.296.453.651.584 1.066.13.41.197.868.197 1.371v.762h-5.46v-1.219h3.663v-.14c0-.253-.046-.48-.14-.679a1.078 1.078 0 0 0-.406-.482c-.182-.119-.415-.178-.698-.178a1.17 1.17 0 0 0-.622.159 1.227 1.227 0 0 0-.425.444c-.106.19-.187.415-.242.673-.05.254-.076.533-.076.838v.254c0 .275.038.529.115.762.08.232.192.433.336.603.148.169.326.3.533.393.212.093.45.14.717.14.33 0 .637-.064.92-.19.289-.132.536-.329.743-.591l.89.965a2.747 2.747 0 0 1-.591.597c-.246.19-.542.346-.889.47a3.665 3.665 0 0 1-1.187.177Z" fill="#000"/></svg>